<?xml version="1.0" standalone="no"?>
<!DOCTYPE svg PUBLIC "-//W3C//DTD SVG 20010904//EN"
 "http://www.w3.org/TR/2001/REC-SVG-20010904/DTD/svg10.dtd">
<svg version="1.0" xmlns="http://www.w3.org/2000/svg"
 width="1280.000000pt" height="720.000000pt" viewBox="0 0 1280.000000 720.000000"
 preserveAspectRatio="xMidYMid meet">
<metadata>
Created by potrace 1.16, written by Peter Selinger 2001-2019
</metadata>
<g transform="translate(0.000000,720.000000) scale(0.100000,-0.100000)"
fill="#000000" stroke="none">
<path d="M6338 7185 c-3 -3 -30 -8 -60 -10 -97 -6 -128 -32 -128 -104 0 -22
-8 -32 -35 -47 -24 -12 -35 -26 -35 -41 0 -12 -11 -34 -24 -50 -14 -16 -28
-41 -31 -56 -4 -15 -11 -30 -16 -33 -5 -3 -9 -14 -9 -24 0 -10 -3 -20 -8 -22
-17 -7 -73 -239 -82 -343 -12 -134 -26 -197 -54 -250 -11 -22 -23 -42 -26 -45
-17 -16 -26 -56 -17 -71 8 -13 1 -31 -30 -80 -51 -82 -83 -144 -83 -163 0 -9
-13 -38 -30 -64 -36 -59 -69 -185 -71 -267 0 -60 -8 -117 -28 -207 -6 -26 -15
-96 -21 -155 -6 -59 -15 -110 -19 -113 -5 -3 -11 -27 -14 -55 -4 -27 -12 -77
-18 -110 -7 -33 -14 -116 -15 -185 -2 -69 -6 -172 -10 -230 -4 -83 0 -140 19
-275 21 -141 24 -196 20 -325 -2 -85 -7 -179 -10 -207 -4 -41 -2 -53 8 -53 9
0 10 -3 3 -8 -5 -4 -16 -74 -23 -155 l-13 -149 28 -29 c15 -16 36 -29 46 -29
16 0 18 -9 18 -72 0 -70 -7 -117 -36 -262 -26 -127 -14 -176 43 -176 19 0 46
-6 61 -14 15 -7 54 -19 87 -26 33 -7 63 -17 67 -23 3 -6 26 -10 50 -9 70 3 70
5 74 -189 2 -107 -1 -176 -7 -180 -5 -3 -12 -46 -16 -95 -3 -49 -21 -152 -40
-229 -35 -138 -35 -143 -35 -351 1 -141 7 -251 18 -330 23 -167 19 -554 -7
-554 -5 0 -9 -15 -9 -33 0 -18 -7 -59 -15 -90 -8 -32 -15 -65 -15 -74 0 -32
54 -132 75 -137 49 -13 316 1 333 18 2 3 6 22 9 45 4 30 -1 52 -21 92 -14 29
-26 63 -26 75 0 12 -5 24 -10 26 -6 2 -14 62 -19 134 -4 72 -12 137 -17 145
-4 7 -7 50 -5 95 2 84 10 136 54 359 26 130 51 292 63 395 7 64 44 223 54 230
12 9 40 90 40 118 1 15 7 38 15 52 8 14 14 44 15 68 0 34 3 42 19 42 31 0 47
-240 33 -479 -7 -102 -10 -332 -8 -510 4 -303 3 -327 -15 -374 -17 -43 -19
-72 -18 -231 0 -99 -2 -193 -6 -208 -13 -51 5 -64 102 -73 115 -10 164 -9 172
3 3 5 27 11 53 14 59 7 78 22 78 60 0 23 -12 42 -49 79 -27 27 -54 49 -60 49
-6 0 -11 7 -11 15 0 8 -4 15 -9 15 -17 0 -30 83 -21 125 12 51 12 126 1 144
-6 9 -4 22 5 37 25 37 144 492 144 549 0 22 10 78 21 125 29 118 33 382 7 420
-14 19 -18 45 -18 112 0 49 4 88 9 88 5 0 4 16 -2 37 -9 28 -9 37 1 41 7 2 12
16 12 30 0 22 42 243 56 289 1 7 20 15 41 18 139 22 375 75 390 89 12 11 1
186 -27 431 -8 75 -7 83 16 122 13 23 30 48 37 55 7 7 21 48 31 91 10 42 22
77 27 77 15 0 10 18 -9 37 -35 34 -52 98 -52 193 0 50 4 90 9 90 5 0 9 79 8
178 0 97 2 218 5 267 8 116 -15 415 -31 415 -12 0 -8 84 3 92 7 5 7 8 -1 8 -9
0 -13 23 -13 80 0 44 -4 80 -9 80 -13 0 -21 129 -26 435 -5 348 -13 379 -118
477 -27 26 -58 50 -68 53 -22 7 -24 26 -7 43 9 9 9 12 0 12 -8 0 -12 18 -12
50 0 30 -4 50 -11 50 -7 0 -9 10 -5 26 8 29 -11 134 -24 134 -4 0 -10 8 -14
18 -3 9 -9 24 -14 32 -10 17 -23 42 -62 115 -30 57 -64 149 -80 215 -18 72
-83 232 -97 237 -7 3 -13 11 -13 18 0 25 -99 211 -129 243 -17 17 -44 38 -61
47 -32 16 -180 32 -192 20z m266 -210 c8 -8 19 -15 23 -15 14 0 56 -79 70
-130 31 -112 34 -138 27 -247 -6 -94 -10 -115 -27 -130 -19 -18 -19 -17 -13
12 17 84 4 227 -29 315 -10 26 -14 57 -11 76 7 33 -23 84 -49 84 -12 0 -25 21
-25 41 0 14 17 11 34 -6z m48 -547 c-5 -5 -14 -2 -21 6 -10 12 -10 18 1 29 11
13 14 12 21 -6 4 -11 4 -24 -1 -29z m-768 -1340 c11 -92 7 -167 -15 -271 -12
-60 -19 -121 -16 -147 7 -63 -38 -270 -74 -342 -33 -66 -66 -81 -55 -25 4 17
13 106 21 197 13 151 39 343 50 360 2 3 13 61 25 128 23 138 27 152 45 152 7
0 15 -20 19 -52z m1273 -1040 c19 -40 43 -129 43 -159 0 -46 -27 -36 -40 14
-5 23 -17 62 -25 87 -8 25 -15 53 -15 63 0 24 25 21 37 -5z m93 -543 c0 -66
-3 -85 -14 -85 -10 0 -15 16 -18 58 -4 76 1 112 18 112 11 0 14 -19 14 -85z"/>
</g>
</svg>
